<svg width="108" height="108" viewBox="0 0 108 108" fill="none" xmlns="http://www.w3.org/2000/svg">
<rect x="2" y="2" width="104" height="104" rx="6" stroke="white" stroke-width="4"/>
<path d="M62.9844 37.4688C59.3745 37.4688 56.1706 38.8937 54 41.3428C51.8294 38.8937 48.6255 37.4688 45.0156 37.4688C41.8715 37.4726 38.8572 38.7232 36.634 40.9465C34.4107 43.1697 33.1601 46.184 33.1562 49.3281C33.1562 62.3267 52.169 72.7127 52.9776 73.1493C53.2918 73.3185 53.6431 73.4071 54 73.4071C54.3569 73.4071 54.7082 73.3185 55.0224 73.1493C55.831 72.7127 74.8438 62.3267 74.8438 49.3281C74.8399 46.184 73.5893 43.1697 71.366 40.9465C69.1428 38.7232 66.1285 37.4726 62.9844 37.4688ZM61.9979 63.0491C59.4953 65.1727 56.8201 67.084 54 68.7631C51.1799 67.084 48.5047 65.1727 46.0021 63.0491C42.1083 59.7087 37.4688 54.6145 37.4688 49.3281C37.4688 47.3266 38.2639 45.407 39.6792 43.9917C41.0945 42.5764 43.0141 41.7812 45.0156 41.7812C48.2141 41.7812 50.8914 43.4703 52.0037 46.1908C52.1656 46.5874 52.4419 46.9267 52.7975 47.1656C53.153 47.4045 53.5716 47.5321 54 47.5321C54.4284 47.5321 54.847 47.4045 55.2025 47.1656C55.5581 46.9267 55.8344 46.5874 55.9963 46.1908C57.1086 43.4703 59.7859 41.7812 62.9844 41.7812C64.9859 41.7812 66.9055 42.5764 68.3208 43.9917C69.7361 45.407 70.5312 47.3266 70.5312 49.3281C70.5312 54.6145 65.8917 59.7087 61.9979 63.0491Z" fill="white"/>
</svg>
