<svg width="108" height="108" viewBox="0 0 108 108" fill="none" xmlns="http://www.w3.org/2000/svg">
<rect x="2" y="2" width="104" height="104" rx="6" stroke="white" stroke-width="4"/>
<path d="M34.5 38.8333C34.5 37.6841 34.9565 36.5819 35.7692 35.7692C36.5819 34.9565 37.6841 34.5 38.8333 34.5H69.1667C70.3159 34.5 71.4181 34.9565 72.2308 35.7692C73.0435 36.5819 73.5 37.6841 73.5 38.8333V69.1667C73.5 70.3159 73.0435 71.4181 72.2308 72.2308C71.4181 73.0435 70.3159 73.5 69.1667 73.5H38.8333C37.6841 73.5 36.5819 73.0435 35.7692 72.2308C34.9565 71.4181 34.5 70.3159 34.5 69.1667V38.8333Z" stroke="white" stroke-width="3" stroke-linecap="round" stroke-linejoin="round"/>
<path d="M49.6666 62.6667V45.3334H55.4451C57.0398 45.3334 58.3333 47.2725 58.3333 49.6667C58.3333 52.0609 57.0398 54 55.4451 54H49.6666" stroke="white" stroke-width="3" stroke-linecap="round" stroke-linejoin="round"/>
</svg>
