<svg width="108" height="108" viewBox="0 0 108 108" fill="none" xmlns="http://www.w3.org/2000/svg">
<rect x="2" y="2" width="104" height="104" rx="6" stroke="white" stroke-width="4"/>
<path d="M36.1271 79.1841C32.0223 79.1841 28.6821 75.8439 28.6821 71.7392C28.6821 67.6344 32.0223 64.2942 36.1271 64.2942C40.2318 64.2942 43.5713 67.6344 43.5713 71.7392C43.5713 75.8439 40.2326 79.1841 36.1271 79.1841ZM36.1271 67.3342C33.6981 67.3342 31.7221 69.3102 31.7221 71.7392C31.7221 74.1681 33.6981 76.1441 36.1271 76.1441C38.556 76.1441 40.5313 74.1681 40.5313 71.7392C40.5313 69.3102 38.556 67.3342 36.1271 67.3342Z" fill="white"/>
<path d="M71.6153 42.176C74.8875 42.176 77.5402 39.5233 77.5402 36.251C77.5402 32.9787 74.8875 30.326 71.6153 30.326C68.343 30.326 65.6903 32.9787 65.6903 36.251C65.6903 39.5233 68.343 42.176 71.6153 42.176Z" fill="white"/>
<path d="M42.9669 61.9125C42.3663 62.4831 42.3419 63.4325 42.9125 64.0331C43.4831 64.6337 44.4325 64.6581 45.0331 64.0875L42.9669 61.9125ZM65.4995 44.0384C65.5207 43.2103 64.8666 42.5217 64.0384 42.5005L50.5429 42.1545C49.7147 42.1332 49.0262 42.7874 49.0049 43.6155C48.9837 44.4437 49.6378 45.1322 50.466 45.1535L62.462 45.4611L62.1545 57.4571C62.1332 58.2853 62.7874 58.9738 63.6155 58.9951C64.4437 59.0163 65.1322 58.3622 65.1535 57.534L65.4995 44.0384ZM45.0331 64.0875L65.0331 45.0875L62.9669 42.9125L42.9669 61.9125L45.0331 64.0875Z" fill="white"/>
</svg>
