<svg width="108" height="108" viewBox="0 0 108 108" fill="none" xmlns="http://www.w3.org/2000/svg">
<rect x="2" y="2" width="104" height="104" rx="6" stroke="white" stroke-width="4"/>
<path d="M72.8571 34.6278H57.1429V30.8139C57.1429 29.8024 56.8117 28.8323 56.2223 28.1171C55.6329 27.4018 54.8335 27 54 27H35.1429C34.3093 27 33.5099 27.4018 32.9205 28.1171C32.3311 28.8323 32 29.8024 32 30.8139V68.9528C32 69.9643 32.3311 70.9344 32.9205 71.6497C33.5099 72.3649 34.3093 72.7667 35.1429 72.7667H50.8571V76.5806C50.8571 77.5921 51.1883 78.5622 51.7777 79.2775C52.3671 79.9927 53.1665 80.3945 54 80.3945H72.8571C73.6907 80.3945 74.4901 79.9927 75.0795 79.2775C75.6689 78.5622 76 77.5921 76 76.5806V38.4417C76 37.4302 75.6689 36.4601 75.0795 35.7449C74.4901 35.0296 73.6907 34.6278 72.8571 34.6278ZM35.1429 51.7903H44.8386L40.7843 56.7293L43 59.4181L50.8571 49.8834L43 40.3486L40.7843 43.0374L44.8386 47.9764H35.1429V30.8139H54V68.9528H35.1429V51.7903ZM54 76.5806V72.7667C54.8335 72.7667 55.6329 72.3649 56.2223 71.6497C56.8117 70.9344 57.1429 69.9643 57.1429 68.9528V38.4417H72.8571V55.6042H63.1614L67.2157 50.6652L65 47.9764L57.1429 57.5112L65 67.0459L67.2157 64.3571L63.1614 59.4181H72.8571V76.5806H54Z" fill="white"/>
</svg>
